<svg width="120" height="100" viewBox="0 0 120 100" fill="none" xmlns="http://www.w3.org/2000/svg">
<path d="M2.37 44.91C2.5 41.47 0.440002 39.77 0.440002 39.77H11.88C17.84 39.77 18.31 43.75 18.31 43.75C15.83 42.16 13.46 42.2 10.38 42.2C10.15 42.2 6.87 42.19 6.87 42.19C7.4 42.79 7.4 44.92 7.4 44.92V47.36H9.85C13.71 47.36 15.01 50.42 15.01 50.42C13.21 49.42 11.36 49.63 9.86 49.63C8.57 49.63 7.39 49.66 7.39 49.66V57.25C7.53 58.41 7.4 59.8 9.08 59.8C9.67 59.8 13.9 59.8 14.44 59.8C17.85 59.8 18.68 58.12 18.68 58.12L18.64 59.45C18.64 60.45 17.74 62.24 15.14 62.24H3.75C3.75 62.24 2.37 62.18 2.37 58.69V44.9V44.91Z" fill="#14142B"/>
<path d="M44.78 58.63V48.98C44.78 45.24 41.65 44.24 39.35 44.24C36.3 44.24 35.38 46.77 34.99 47.62C34.3 45.28 31.91 44.21 29.94 44.21C26.26 44.21 25.31 47.68 25.31 47.68C25.31 47.68 25.22 44.33 22.24 44.33H19.34C19.34 44.33 21.01 45.02 21.01 47.91V58.63C21.01 62.2 22.46 62.23 22.46 62.23H27.28C27.16 62.2 25.43 60.91 25.43 58.6V49.1C25.48 48.67 26.22 47.25 28.3 47.25C29.44 47.25 30.72 48.44 30.69 49.8V58.63C30.69 62.22 32.12 62.23 32.12 62.23H36.96C36.96 62.23 35.11 60.96 35.11 58.59V49.09C35.26 48.56 35.91 47.28 37.74 47.28C39.17 47.28 40.36 48.47 40.33 49.83C40.33 49.83 40.32 57.88 40.33 58.63C40.35 62.24 41.78 62.21 41.78 62.21C44.3 62.21 46.61 62.21 46.61 62.21C46.61 62.21 44.77 60.96 44.77 58.61L44.78 58.63Z" fill="#14142B"/>
<path d="M53.19 58.62C53.19 61 55.04 62.23 55.04 62.23C55.04 62.23 52.75 62.22 50.23 62.22C50.23 62.22 48.78 62.23 48.78 58.65V47.88C48.78 45.06 47.12 44.33 47.12 44.33H50C51.03 44.33 53.18 44.33 53.18 48.33V58.6L53.2 58.61L53.19 58.62Z" fill="#14142B"/>
<path d="M68 45.7C68 45.7 67.52 44.41 65.53 44.41C62.5 44.41 61.76 47.93 61.76 47.93C61.51 45.15 60.75 44.33 58.66 44.33H55.73C55.73 44.33 57.43 45.02 57.43 47.9V58.63C57.43 62.21 58.86 62.24 58.86 62.24H63.64C63.52 62.21 61.79 60.92 61.79 58.61V49.83C61.93 49.03 62.34 48.42 62.98 48.01C64.56 47.02 66.73 47.26 67.99 48.73V45.71L68 45.7Z" fill="#14142B"/>
<path d="M90.36 46.34C92.01 46.34 93.22 47.04 93.22 47.04V44.33H89.2V40.23C89.2 40.23 88.16 42.05 85.99 43.8C84.61 44.91 81.74 46.27 81.74 46.27L84.8 46.32V58.76C84.8 62.21 86.27 62.21 86.27 62.21C88.9 62.21 91.04 62.22 91.04 62.22C91.04 62.22 89.19 60.99 89.19 58.73V46.32C90.45 46.32 89.58 46.32 90.36 46.32" fill="#14142B"/>
<path d="M104.98 51.76C102.27 54.52 100.15 54.08 98.5 56.12C98.5 56.12 98.77 58.87 100.87 59.84C101.61 60.18 104.58 61.11 106.52 57.8V60.95C106.52 60.95 105.26 62.24 101.34 62.24C96.65 62.24 93.4 58.59 93.4 53.65C93.4 48.71 96.04 44.25 100.99 44.24C105.89 44.21 108.53 48.08 104.98 51.75M102.01 50.61C102.81 49.15 103.43 45.48 100.71 45.68C97.57 45.92 98.18 54.17 98.18 54.17C99.21 53.04 100.79 52.81 102.01 50.61Z" fill="#14142B"/>
<path d="M50.96 42.88C52.2 42.88 53.21 41.93 53.21 40.73C53.21 39.53 52.2 38.56 50.96 38.56C49.72 38.56 48.74 39.53 48.74 40.73C48.74 41.93 49.71 42.88 50.96 42.88Z" fill="#14142B"/>
<path d="M115.56 57.38C115.62 58.65 114.46 60.32 112 60.32C109.54 60.32 108.55 57.78 108.55 57.78V60.99C108.55 60.99 110.31 62.26 113.09 62.26C116.4 62.26 119.66 59.81 119.56 56.4C119.52 55.18 119.1 54.15 118.45 53.26C117.33 51.81 115.3 50.74 113.7 49.83C111.53 48.59 111.82 45.92 115.01 46.17C117.41 46.36 118.43 48.63 118.43 48.63V45.65C118.43 45.65 116.59 44.22 113.8 44.22C111.01 44.22 108.34 46.11 108.42 48.49C108.48 50.61 109.37 52 111.13 53.26C111.82 53.77 112.66 54.27 113.62 54.79C115.02 55.56 115.54 56.5 115.57 57.39" fill="#14142B"/>
<path d="M73.63 60.2C72.12 60.2 71.08 59.4 71.08 57.7C71.08 53.66 74.8 52.84 75.79 51.64V59.17C75.79 59.17 75.11 60.2 73.63 60.2ZM76.23 48.28C76.23 50.03 74.72 50.82 73.73 51.24C70.87 52.47 67.2 53.84 67.2 57.94C67.2 60.69 69.2 62.26 72.06 62.26C74.22 62.26 75.33 61.15 75.87 60.11C76.2 62.14 77.22 62.22 77.22 62.22C79.75 62.22 82.03 62.23 82.03 62.23C82.03 62.23 80.15 60.97 80.15 58.63V48.58C80.15 46.17 77.45 44.3 74.57 44.3C71.69 44.3 70.06 45.62 70.06 45.62V48.74C70.06 48.74 71.04 46.27 73.54 46.27C75.61 46.27 76.23 47.27 76.23 48.28Z" fill="#14142B"/>
</svg>
